<?xml version="1.0" encoding="iso-8859-1"?>
<!-- Generator: Adobe Illustrator 18.1.1, SVG Export Plug-In . SVG Version: 6.00 Build 0)  -->
<svg version="1.1" id="Capa_1" xmlns="http://www.w3.org/2000/svg" xmlns:xlink="http://www.w3.org/1999/xlink" x="0px" y="0px"
	 viewBox="0 0 307.655 307.655" style="enable-background:new 0 0 307.655 307.655;" xml:space="preserve">
<g>
	<g>
		<g>
			<path style="fill:#010002;" d="M256.734,265.225c-4.873-10.535-15.523-17.34-27.13-17.34c-4.351,0-8.567,0.936-12.532,2.768
				c-7.234,3.35-12.744,9.328-15.496,16.823c-2.752,7.49-2.426,15.599,0.93,22.85c4.873,10.525,15.529,17.329,27.135,17.329
				c4.346,0,8.55-0.93,12.521-2.768c7.245-3.35,12.749-9.323,15.512-16.823C260.427,280.574,260.085,272.459,256.734,265.225z"/>
		</g>
		<g>
			<path style="fill:#010002;" d="M177.204,55.402c3.726,1.659,7.68,2.497,11.738,2.497l0,0c11.438,0,21.827-6.75,26.472-17.193
				c6.478-14.593-0.12-31.737-14.713-38.215C196.975,0.838,193.032,0,188.974,0c-11.438,0-21.827,6.75-26.472,17.193
				C156.019,31.786,162.627,48.919,177.204,55.402z"/>
		</g>
		<g>
			<path style="fill:#010002;" d="M207.048,162.666c-2.295,5.934-2.012,11.444,0.778,15.523c2.159,3.133,5.542,4.944,9.284,4.944
				c5.782,0,10.835-4.161,13.522-11.128c19.504-50.638,7.511-84.996-36.436-104.92c-1.55-1.202-3.138-2.274-4.873-3.291
				c-10.258-6.07-20.021-9.149-29.001-9.149c-1.474,0-2.79,0.082-4.444,0.294l-5.406,1.664c-9.023,3.883-35.675,6.043-79.198,6.413
				c-10.644,0.076-16.187,7.288-16.154,14.359c0.033,6.973,5.597,14.033,16.198,14.033c13.989-0.114,28.163-0.946,41.892-1.735
				l6.674-0.397l-40.042,79.046l-28.376,56.811c-1.876,4.232-7.549,17.09,2.328,22.599c0.082,0.087,0.163,0.169,0.256,0.256
				l-0.256,0.577l0.468-0.397c1.686,1.387,4.786,2.187,7.158,2.187c4.068,0,9.97-1.828,14.99-10.492l38.487-58.965
				c0-0.016,1.017-1.735,2.709-1.735c0.451,0,0.946,0.125,1.479,0.348c0.821,0.354,1.316,0.772,1.512,1.278
				c0.332,0.876-0.152,1.991-0.163,2.012l-40.728,93.623c-4.873,10.981-2.943,20.005,5.042,23.546
				c2.382,1.061,4.694,1.599,6.88,1.599c3.998,0,9.551-1.795,13.293-10.242c0.756-1.403,74.591-139.387,94.003-181.768
				C212.988,122.966,215.647,140.344,207.048,162.666z"/>
		</g>
	</g>
</g>
<g>
</g>
<g>
</g>
<g>
</g>
<g>
</g>
<g>
</g>
<g>
</g>
<g>
</g>
<g>
</g>
<g>
</g>
<g>
</g>
<g>
</g>
<g>
</g>
<g>
</g>
<g>
</g>
<g>
</g>
</svg>
