<svg width="663" height="525" fill="none" xmlns="http://www.w3.org/2000/svg">
    <path
        d="M401.592 85.713c87.487 31.169 222.149 9.289 255.294 84.136 32.982 74.477-75.759 136.344-128.43 202.341-42.864 53.709-73.506 118.227-145.547 140.954-74.627 23.543-158.022 8.472-228.402-22.982C85.19 459.182 28.339 408.927 7.423 345.329c-20.192-61.395 9.376-122.455 40.019-180.713C80.828 101.141 107.833 20.459 187.65 2.676c78.933-17.586 138.759 56.252 213.942 83.037Z"
        fill="#ABD1C6" />
    <path
        d="M594.133 60.047H89.204c-9.691 0-17.548 7.856-17.548 17.547v338.742c0 9.692 7.857 17.548 17.548 17.548h504.929c9.692 0 17.548-7.856 17.548-17.548V77.594c0-9.691-7.856-17.547-17.548-17.547Z"
        fill="#fff" />
    <path
        d="M594.133 436.931H89.204a20.627 20.627 0 0 1-20.594-20.595V77.594A20.625 20.625 0 0 1 89.204 57h504.929a20.624 20.624 0 0 1 20.595 20.594v338.742a20.626 20.626 0 0 1-20.595 20.595ZM89.204 63.093a14.532 14.532 0 0 0-14.501 14.501v338.742a14.533 14.533 0 0 0 14.501 14.502h504.929a14.5 14.5 0 0 0 10.254-4.248 14.5 14.5 0 0 0 4.248-10.254V77.594a14.5 14.5 0 0 0-14.502-14.501H89.204Z"
        fill="#093F68" />
    <path
        d="M582.922 96.696v300.539a11.945 11.945 0 0 1-11.942 11.912H112.54a11.924 11.924 0 0 1-8.442-3.479 11.9 11.9 0 0 1-3.5-8.433V96.696a11.94 11.94 0 0 1 11.942-11.942h458.44a11.974 11.974 0 0 1 11.942 11.942Z"
        fill="#68E1FD" />
    <path
        d="M570.98 412.193H112.54a14.999 14.999 0 0 1-10.607-4.368 14.989 14.989 0 0 1-4.412-10.59V96.696a15.019 15.019 0 0 1 15.019-14.989h458.44a15.019 15.019 0 0 1 14.989 14.99v300.538a14.99 14.99 0 0 1-14.989 14.958ZM112.54 87.8a8.926 8.926 0 0 0-9.139 8.896v300.539a8.886 8.886 0 0 0 2.702 6.358 8.901 8.901 0 0 0 6.437 2.507h458.44a8.86 8.86 0 0 0 8.218-5.466 8.849 8.849 0 0 0 .678-3.399V96.696a8.893 8.893 0 0 0-8.896-8.896H112.54Z"
        fill="#093F68" />
    <path
        d="M341.669 412.224a3.043 3.043 0 0 1-2.154-.893 3.043 3.043 0 0 1-.893-2.154V84.754a3.044 3.044 0 0 1 3.047-3.047 3.045 3.045 0 0 1 3.046 3.047v324.423a3.047 3.047 0 0 1-3.046 3.047Z"
        fill="#093F68" />
    <path
        d="M341.669 311.628a64.676 64.676 0 0 1-12.618-128.112 64.677 64.677 0 0 1 77.295 63.434 64.736 64.736 0 0 1-64.677 64.678Zm0-123.232a58.584 58.584 0 1 0 58.584 58.554 58.615 58.615 0 0 0-58.584-58.554ZM175.603 319.64h-75.249a3.048 3.048 0 0 1-3.046-3.046V177.337a3.046 3.046 0 0 1 3.046-3.046h75.249a3.047 3.047 0 0 1 3.047 3.046v139.257a3.045 3.045 0 0 1-3.047 3.046Zm-72.111-6.093h69.065V180.384h-69.156l.091 133.163Z"
        fill="#093F68" />
    <path
        d="M175.603 306.936a3.047 3.047 0 0 1-1.675-.518 3.038 3.038 0 0 1-1.371-2.528V190.041a3.042 3.042 0 0 1 1.371-2.528 3.045 3.045 0 0 1 2.833-.274 64.61 64.61 0 0 1 39.959 59.726 64.623 64.623 0 0 1-39.959 59.727c-.366.156-.76.239-1.158.244Zm3.047-112.142v104.343a58.562 58.562 0 0 0 31.97-52.172 58.558 58.558 0 0 0-31.97-52.171ZM582.922 319.64h-75.188a3.047 3.047 0 0 1-3.046-3.046V177.337a3.047 3.047 0 0 1 3.046-3.046h75.188a3.047 3.047 0 0 1 3.047 3.046v139.257a3.048 3.048 0 0 1-3.047 3.046Zm-72.141-6.093h69.095V180.384h-69.095v133.163Z"
        fill="#093F68" />
    <path
        d="M507.734 306.936a3.048 3.048 0 0 1-1.157-.244 64.648 64.648 0 0 1-29.04-95.675 64.644 64.644 0 0 1 29.04-23.809 3.038 3.038 0 0 1 2.863.305 3.04 3.04 0 0 1 1.341 2.528v113.848a3.047 3.047 0 0 1-3.047 3.047Zm-3.046-112.142a58.546 58.546 0 0 0-31.97 52.171 58.553 58.553 0 0 0 31.97 52.172V194.794Z"
        fill="#093F68" />
    <path d="M582.922 380.54v16.695a11.942 11.942 0 0 1-11.942 11.912h-16.695a28.64 28.64 0 0 1 28.637-28.607Z"
        fill="#68E1FD" />
    <path
        d="M570.98 412.193h-16.695a3.047 3.047 0 0 1-3.047-3.046 31.742 31.742 0 0 1 31.562-31.654 3.051 3.051 0 0 1 2.133.884 3.038 3.038 0 0 1 .914 2.163v16.695a14.988 14.988 0 0 1-14.867 14.958Zm-13.374-6.093h13.374a8.86 8.86 0 0 0 8.218-5.466 8.867 8.867 0 0 0 .678-3.399v-13.374a25.711 25.711 0 0 0-22.27 22.239Z"
        fill="#093F68" />
    <path d="M582.922 96.696v16.695a28.637 28.637 0 0 1-28.546-28.637h16.604a11.974 11.974 0 0 1 11.942 11.942Z"
        fill="#68E1FD" />
    <path
        d="M582.922 116.438a31.752 31.752 0 0 1-22.386-9.298 31.752 31.752 0 0 1-9.298-22.386 3.044 3.044 0 0 1 3.047-3.047h16.603a15.019 15.019 0 0 1 14.989 14.99v16.694a3.03 3.03 0 0 1-.914 2.163 3.046 3.046 0 0 1-2.041.884ZM557.606 87.8a25.72 25.72 0 0 0 7.3 15 25.72 25.72 0 0 0 14.97 7.362V96.696a8.898 8.898 0 0 0-8.896-8.896h-13.374Z"
        fill="#093F68" />
    <path
        d="M128.961 409.147H112.54a11.905 11.905 0 0 1-8.442-3.478 11.893 11.893 0 0 1-2.59-3.869 11.9 11.9 0 0 1-.91-4.565V380.54a28.604 28.604 0 0 1 28.363 28.607Z"
        fill="#68E1FD" />
    <path
        d="M128.961 412.193H112.54a14.999 14.999 0 0 1-10.607-4.368 14.989 14.989 0 0 1-4.412-10.59V380.54a3.045 3.045 0 0 1 .914-2.163 3.05 3.05 0 0 1 2.133-.884 31.741 31.741 0 0 1 31.561 31.654 3.041 3.041 0 0 1-3.168 3.046Zm-25.56-28.332v13.465a8.889 8.889 0 0 0 2.734 6.299 8.897 8.897 0 0 0 6.405 2.475h13.344a25.712 25.712 0 0 0-22.483-22.239Z"
        fill="#093F68" />
    <path d="M129.083 84.754a28.634 28.634 0 0 1-28.637 28.637V96.696a11.938 11.938 0 0 1 12.094-11.942h16.543Z"
        fill="#68E1FD" />
    <path
        d="M100.354 116.437a3.044 3.044 0 0 1-3.046-3.046V96.696a15.02 15.02 0 0 1 15.232-14.989h16.695a3.046 3.046 0 0 1 3.047 3.047 31.714 31.714 0 0 1-31.928 31.683ZM112.327 87.8a8.926 8.926 0 0 0-8.926 8.896v13.466A25.59 25.59 0 0 0 125.793 87.8h-13.466Z"
        fill="#093F68" />
    <path
        d="M262.033 339.93a124.03 124.03 0 0 1-76.098 116.34 124.04 124.04 0 0 1-95.82 0 124.028 124.028 0 0 1-76.099-116.34c0-2.468 0-4.905.244-7.342a123.993 123.993 0 0 1 247.529 0c.031 2.528.244 4.874.244 7.342Z"
        fill="#fff" />
    <path
        d="M138.04 467a126.988 126.988 0 0 1-89.86-37.202A126.985 126.985 0 0 1 11 339.93c0-2.407 0-4.875.213-7.525a127.039 127.039 0 0 1 253.623 0c0 2.65.243 5.118.243 7.525a127.012 127.012 0 0 1-78.412 117.405A127.002 127.002 0 0 1 138.04 467Zm0-247.986A120.884 120.884 0 0 0 17.306 332.74c0 2.559-.213 4.905-.213 7.19a120.946 120.946 0 0 0 241.893 0c0-2.285 0-4.631-.243-7.19A120.824 120.824 0 0 0 138.04 219.014Z"
        fill="#093F68" />
    <path d="m138.04 297.796-44.967 32.659 17.182 52.827h55.538l17.183-52.827-44.936-32.659Z" fill="#093F68" />
    <path
        d="M165.793 386.328h-55.538a3.048 3.048 0 0 1-2.894-2.102L90.179 331.4a3.047 3.047 0 0 1 1.127-3.412l44.936-32.659a3.05 3.05 0 0 1 3.565 0l44.966 32.659a3.05 3.05 0 0 1 1.097 3.412l-17.183 52.826a3.047 3.047 0 0 1-2.894 2.102Zm-53.314-6.093H163.6l15.781-48.744-41.341-29.886-41.372 30.038 15.811 48.592ZM188.52 226.66l-50.48 36.559-50.481-36.559a124.513 124.513 0 0 1 100.961 0Z"
        fill="#093F68" />
    <path
        d="M138.04 266.387a3.231 3.231 0 0 1-1.798-.579l-50.48-36.558a3.048 3.048 0 0 1-1.25-2.772 3.05 3.05 0 0 1 1.798-2.468 127.464 127.464 0 0 1 103.581 0 3.043 3.043 0 0 1 1.767 2.468 3.053 3.053 0 0 1-1.218 2.772l-50.481 36.558a3.23 3.23 0 0 1-1.919.579Zm-44.327-38.996 44.327 32.172 44.327-32.172a121.47 121.47 0 0 0-88.654 0ZM61.45 311.567l-47.19 21.021a123.6 123.6 0 0 1 39.605-83.719l1.005.244 6.489 61.631.091.823Z"
        fill="#093F68" />
    <path
        d="M14.26 335.634a3.032 3.032 0 0 1-2.222-.956 3.04 3.04 0 0 1-.825-2.273 126.31 126.31 0 0 1 40.58-85.638 3.055 3.055 0 0 1 2.742-.731l1.005.214a3.044 3.044 0 0 1 2.376 2.65l6.55 62.484a3.049 3.049 0 0 1-1.767 3.047l-47.19 21.02c-.4.148-.825.21-1.25.183Zm38.112-81.098a119.973 119.973 0 0 0-34.67 73.116l40.489-18.035-5.82-55.081ZM261.819 332.588l-47.19-21.021v-.823l6.489-61.631 1.005-.213a123.471 123.471 0 0 1 39.696 83.688Z"
        fill="#093F68" />
    <path
        d="M261.82 335.634a2.824 2.824 0 0 1-1.219-.274l-47.191-21.021a3.044 3.044 0 0 1-1.797-3.046v-.823l6.52-61.661c.07-.64.34-1.24.773-1.716a3.04 3.04 0 0 1 1.633-.935l1.006-.213a3.043 3.043 0 0 1 2.681.762 126.127 126.127 0 0 1 40.64 85.698 3.044 3.044 0 0 1-3.046 3.229Zm-43.931-25.956 40.488 18.035a119.756 119.756 0 0 0-34.669-73.116l-5.819 55.081ZM247.135 398.88a124.238 124.238 0 0 1-71.227 59.163l11.698-53.283h.701l58.828-5.88Z"
        fill="#093F68" />
    <path
        d="M175.908 461.09a3.044 3.044 0 0 1-2.041-.792 3.04 3.04 0 0 1-.914-3.047l11.668-53.283a3.05 3.05 0 0 1 2.711-2.377h.701l58.798-5.819a3.047 3.047 0 0 1 3.046 4.479 126.494 126.494 0 0 1-72.964 60.595 2.485 2.485 0 0 1-1.005.244Zm14.197-53.497-10.054 45.698a120.308 120.308 0 0 0 61.509-50.908l-51.455 5.21ZM100.354 458.135a124.299 124.299 0 0 1-71.258-58.859l58.768 5.057v.183l12.49 53.619Z"
        fill="#093F68" />
    <path
        d="M100.354 461.181c-.313.044-.63.044-.944 0a126.46 126.46 0 0 1-73.116-60.321 3.045 3.045 0 0 1 0-3.046 3.045 3.045 0 0 1 2.802-1.371l58.798 5.087a3.049 3.049 0 0 1 2.712 2.346l12.795 53.558a3.041 3.041 0 0 1-.884 3.046 3.046 3.046 0 0 1-2.163.701ZM34.641 402.81a120.486 120.486 0 0 0 61.51 50.663l-10.755-46.276-50.755-4.387ZM93.073 333.502a3.048 3.048 0 0 1-1.584-.457l-41.86-25.987a3.045 3.045 0 0 1 1.02-5.338 3.05 3.05 0 0 1 2.18.189l41.859 25.957a3.043 3.043 0 0 1 1.324 3.428 3.044 3.044 0 0 1-2.939 2.208ZM182.915 333.502a3.051 3.051 0 0 1-2.939-2.208 3.05 3.05 0 0 1 1.324-3.428l41.859-25.957a3.052 3.052 0 0 1 4.451.803 3.057 3.057 0 0 1 .339 2.451 3.04 3.04 0 0 1-1.591 1.895l-41.859 25.987a3.048 3.048 0 0 1-1.584.457ZM138.04 309.434a3.047 3.047 0 0 1-3.047-3.046V263.34a3.048 3.048 0 0 1 3.047-3.046 3.048 3.048 0 0 1 3.046 3.046v43.048a3.047 3.047 0 0 1-3.046 3.046Z"
        fill="#093F68" />
    <path
        d="M79.547 415.575a3.052 3.052 0 0 1-2.967-3.685 3.047 3.047 0 0 1 .865-1.555l30.708-29.277a3.05 3.05 0 1 1 4.205 4.417l-30.71 29.277a3.049 3.049 0 0 1-2.101.823ZM196.533 415.575a3.048 3.048 0 0 1-2.102-.823l-30.74-29.277a3.047 3.047 0 0 1-.106-4.311 3.051 3.051 0 0 1 4.31-.106l30.74 29.277a3.049 3.049 0 0 1 0 4.295 3.05 3.05 0 0 1-2.102.945Z"
        fill="#093F68" />
    <path
        d="M440.498 355.254c9.422 0 17.06-7.639 17.06-17.061s-7.638-17.06-17.06-17.06c-9.423 0-17.061 7.638-17.061 17.06 0 9.422 7.638 17.061 17.061 17.061Z"
        fill="#f9bc60" />
    <path
        d="M440.498 358.3a20.133 20.133 0 0 1-19.749-24.077 20.143 20.143 0 0 1 15.839-15.814 20.131 20.131 0 0 1 20.668 8.588 20.14 20.14 0 0 1-16.758 31.303Zm0-34.151a14.048 14.048 0 0 0-12.976 8.67 14.042 14.042 0 0 0 3.045 15.305 14.044 14.044 0 1 0 9.931-23.975Z"
        fill="#093F68" />
    <path
        d="M466.484 184.801c9.423 0 17.061-7.638 17.061-17.06 0-9.422-7.638-17.061-17.061-17.061-9.422 0-17.06 7.639-17.06 17.061s7.638 17.06 17.06 17.06Z"
        fill="#f9bc60" />
    <path
        d="M466.485 187.878a20.134 20.134 0 0 1-18.605-12.431 20.14 20.14 0 0 1 14.676-27.457 20.14 20.14 0 0 1 24.066 19.751 20.137 20.137 0 0 1-20.137 20.137Zm0-34.151a14.039 14.039 0 0 0-12.979 8.677 14.046 14.046 0 0 0 18.374 18.334 14.05 14.05 0 0 0 8.649-12.997 14.042 14.042 0 0 0-14.044-14.014Z"
        fill="#093F68" />
    <path
        d="M271.111 167.741c9.423 0 17.061-7.639 17.061-17.061s-7.638-17.06-17.061-17.06c-9.422 0-17.06 7.638-17.06 17.06 0 9.422 7.638 17.061 17.06 17.061Z"
        fill="#e16162" />
    <path
        d="M271.111 170.787a20.133 20.133 0 0 1-18.629-12.417 20.136 20.136 0 0 1 14.678-27.472 20.136 20.136 0 0 1 24.058 19.782 20.164 20.164 0 0 1-5.907 14.2 20.164 20.164 0 0 1-14.2 5.907Zm0-34.151a14.042 14.042 0 0 0-13.808 16.765 14.047 14.047 0 0 0 19.145 10.258 14.05 14.05 0 0 0 8.677-12.979 14.076 14.076 0 0 0-14.014-14.044Z"
        fill="#093F68" />
    <path
        d="M440.498 255.511c9.422 0 17.06-7.638 17.06-17.061 0-9.422-7.638-17.06-17.06-17.06-9.423 0-17.061 7.638-17.061 17.06 0 9.423 7.638 17.061 17.061 17.061Z"
        fill="#e16162" />
    <path
        d="M440.498 258.557a20.128 20.128 0 0 1-11.191-3.396 20.143 20.143 0 0 1-8.558-20.681 20.143 20.143 0 0 1 15.839-15.814 20.131 20.131 0 0 1 20.668 8.588 20.14 20.14 0 0 1-16.758 31.303Zm0-34.151a14.048 14.048 0 0 0-12.976 8.67 14.042 14.042 0 0 0 3.045 15.305 14.044 14.044 0 1 0 9.931-23.975Z"
        fill="#093F68" />
    <path
        d="M338.836 283.204c9.422 0 17.06-7.639 17.06-17.061s-7.638-17.06-17.06-17.06c-9.423 0-17.061 7.638-17.061 17.06 0 9.422 7.638 17.061 17.061 17.061Z"
        fill="#FFBC0E" />
    <path
        d="M338.835 286.372a20.134 20.134 0 0 1-18.604-12.431 20.14 20.14 0 0 1 14.676-27.457 20.14 20.14 0 0 1 24.066 19.751 20.167 20.167 0 0 1-20.138 20.137Zm0-34.151c-2.779 0-5.495.824-7.805 2.369a14.046 14.046 0 0 0 13.201 24.642 14.05 14.05 0 0 0 8.649-12.997 14.043 14.043 0 0 0-14.045-14.106v.092Z"
        fill="#093F68" />
    <path
        d="M469.683 329.298a3.08 3.08 0 0 1-2.908-4.889 3.077 3.077 0 0 1 2.025-1.204c.457 0 48.013-15.233 73.756-70.375a3.048 3.048 0 0 1 5.514 2.59c-26.931 57.518-75.432 73.116-77.503 73.603-.278.14-.576.233-.884.275Z"
        fill="#fff" />
    <path
        d="M554.285 269.19a3.045 3.045 0 0 1-3.047-2.407l-3.869-17.883-13.831 4.875a3.05 3.05 0 0 1-2.011-5.758l17.091-6.093a3.052 3.052 0 0 1 3.991 2.224l4.57 21.325a3.043 3.043 0 0 1-2.315 3.625l-.579.092ZM322.445 116.437a3.047 3.047 0 0 1-2.207-.763 3.047 3.047 0 0 1-.259-4.308 3.054 3.054 0 0 1 2.101-1.022s1.675-.213 4.752-.396c.808 0 1.583.321 2.154.893a3.05 3.05 0 0 1-1.971 5.2c-2.772.153-4.296.336-4.356.336l-.214.06ZM426.331 139.408a3.265 3.265 0 0 1-1.462-.365 264.24 264.24 0 0 0-7.494-3.93 3.04 3.04 0 0 1-1.706-1.738 3.04 3.04 0 0 1 .876-3.412 3.04 3.04 0 0 1 2.332-.7c.416.049.817.185 1.178.396 2.59 1.28 5.18 2.62 7.769 4.052a3.05 3.05 0 0 1 .363 5.06 3.048 3.048 0 0 1-1.856.637Zm-15.232-7.586a3.46 3.46 0 0 1-1.219-.243c-2.62-1.158-5.24-2.224-7.829-3.047a3.049 3.049 0 0 1-1.767-3.93 3.044 3.044 0 0 1 3.93-1.767 162.047 162.047 0 0 1 8.103 3.29 3.056 3.056 0 0 1 1.84 2.856 3.023 3.023 0 0 1-.256 1.166 3.041 3.041 0 0 1-2.802 1.675Zm-16.086-6.093a2.54 2.54 0 0 1-.944 0c-2.742-.883-5.454-1.736-8.104-2.467a3.045 3.045 0 0 1-2.218-2.561c-.05-.397-.021-.8.085-1.186a3.042 3.042 0 0 1 1.443-1.857 3.05 3.05 0 0 1 2.335-.276c2.742.792 5.545 1.645 8.348 2.559a3.05 3.05 0 0 1 2.1 2.682c.029.401-.022.805-.151 1.187a3.046 3.046 0 0 1-3.046 1.858l.152.061Zm-16.573-4.661c-.233.03-.468.03-.701 0a270.701 270.701 0 0 0-8.286-1.736 3.099 3.099 0 0 1 1.127-6.093c2.772.548 5.636 1.127 8.561 1.828a3.064 3.064 0 0 1 2.696 3.396 3.069 3.069 0 0 1-3.397 2.697v-.092Zm-16.939-3.046h-.426c-3.047-.427-5.758-.762-8.408-1.006a3.053 3.053 0 0 1-2.07-1.103 3.044 3.044 0 0 1 2.648-4.959c2.773.274 5.667.609 8.683 1.036a3.05 3.05 0 0 1 2.833 3.259 3.053 3.053 0 0 1-3.26 2.834v-.061Zm-17.121-1.676h-.305a160.266 160.266 0 0 0-8.469-.244 3.047 3.047 0 1 1 0-6.093c2.864 0 5.819 0 8.774.244a3.047 3.047 0 1 1 0 6.093ZM437.725 146.232a3.04 3.04 0 0 1-1.645-.487l-3.656-2.559a3.047 3.047 0 0 1 3.199-5.179c1.32.792 2.63 1.614 3.93 2.467a3.048 3.048 0 0 1-1.675 5.606l-.153.152ZM303.953 258.558h-.548a174.179 174.179 0 0 1-67.024-27.419 3.06 3.06 0 0 1-1.204-2c-.06-.396-.04-.8.057-1.189a3.05 3.05 0 0 1 3.696-2.224c.389.097.755.27 1.077.508a170.261 170.261 0 0 0 64.464 26.291 3.063 3.063 0 0 1 2.757 3.336 3.06 3.06 0 0 1-3.336 2.757l.061-.06Z"
        fill="#fff" />
    <path
        d="M296.58 269.19a3.049 3.049 0 0 1-1.432-5.728l11.029-5.91-8.073-17.853a3.039 3.039 0 0 1 .444-3.473 3.04 3.04 0 0 1 4.438-.067c.29.299.515.653.662 1.042l9.14 20.442a3.049 3.049 0 0 1-1.341 3.961l-13.557 7.22a3.05 3.05 0 0 1-1.31.366ZM424.717 151.29a3.051 3.051 0 0 1-3.184-2.91 3.05 3.05 0 0 1 2.91-3.183l15.384-1.402-5.026-13.191a3.048 3.048 0 1 1 5.697-2.163l6.458 16.938a3.045 3.045 0 0 1-2.589 4.113l-19.376 1.767-.274.031Z"
        fill="#fff" />
</svg>