<svg width="30" height="30" viewBox="0 0 30 30" fill="none" xmlns="http://www.w3.org/2000/svg">
<g clip-path="url(#clip0_299_101)">
<path d="M29.6786 22.7511C28.5618 20.6399 24.6837 18.3508 24.513 18.2507C24.0147 17.967 23.4947 17.8169 23.0081 17.8169C22.2845 17.8169 21.6922 18.1484 21.3335 18.7512C20.7662 19.4297 20.0627 20.2228 19.8919 20.3457C18.5705 21.2422 17.5361 21.1405 16.3915 19.9959L10.0035 13.6074C8.8662 12.47 8.76164 11.4228 9.65204 10.1086C9.77662 9.93676 10.5697 9.23267 11.2482 8.66483C11.6809 8.40734 11.9779 8.0247 12.108 7.55531C12.281 6.93075 12.1536 6.19607 11.7454 5.4803C11.6492 5.31568 9.35895 1.43707 7.2489 0.320873C6.85515 0.112316 6.41134 0.00219727 5.96641 0.00219727C5.23341 0.00219727 4.54378 0.28806 4.02544 0.805838L2.61392 2.2168C0.381527 4.44864 -0.426563 6.97858 0.210788 9.73599C0.74247 12.034 2.29191 14.4794 4.81685 17.0038L12.9951 25.182C16.1907 28.3777 19.2373 29.9983 22.0504 29.9983C22.0504 29.9983 22.0504 29.9983 22.0509 29.9983C24.1198 29.9983 26.0485 29.119 27.7821 27.3855L29.193 25.9745C30.0506 25.1175 30.2453 23.8217 29.6786 22.7511Z" fill="#001E1D"/>
</g>
<defs>
<clipPath id="clip0_299_101">
<rect width="30" height="30" fill="white"/>
</clipPath>
</defs>
</svg>
