<svg width="30" height="30" viewBox="0 0 30 30" fill="none" xmlns="http://www.w3.org/2000/svg">
<path d="M29.7189 12.0607C28.5924 6.16329 23.8367 1.40758 17.9393 0.281061C7.38966 -1.73404 -1.73404 7.38965 0.281061 17.9393C1.40764 23.8366 6.16335 28.5924 12.0607 29.7189C22.6103 31.734 31.734 22.6103 29.7189 12.0607ZM21.9507 21.9507C21.5845 22.3169 21.1048 22.5 20.625 22.5C20.1452 22.5 19.6655 22.3169 19.2993 21.9507L13.6743 16.3257C13.3227 15.9741 13.125 15.498 13.125 15V7.49999C13.125 6.46358 13.9645 5.62499 15 5.62499C16.0355 5.62499 16.875 6.46364 16.875 7.49999V14.2236L21.9507 19.2993C22.6831 20.0317 22.6831 21.2182 21.9507 21.9507Z" fill="#001E1D"/>
</svg>
