<svg width="217" height="249" viewBox="0 0 217 249" fill="none" xmlns="http://www.w3.org/2000/svg">
<path d="M216.129 186.402V62.2812L108.504 0.222656L0.878906 62.2812V186.402L108.504 248.461L216.129 186.402Z" fill="#093F68"/>
<path d="M210.59 183.371V65.9961L108.59 7.30859L6.58984 65.9961V183.371L108.59 242.059L210.59 183.371ZM12.1133 180.18V69.1875L108.59 13.6953L205.062 69.1875V180.18L108.59 235.672L12.1133 180.18Z" fill="white"/>
<path d="M100.883 125.875L89.9258 97.6602C81.3555 94.9648 69.2969 92.5938 64.0586 91.7969C61.6797 94.6484 54.3789 104.477 51.5195 108.598C52.3125 113.828 54.8516 126.824 62.7891 137.762L85.8008 144.418C88.4961 141.25 95.6406 133.004 100.883 125.875Z" fill="white"/>
<path d="M116.434 78.6406L139.125 93.2266C144.84 89.7383 153.73 84.8203 157.852 82.4414C157.379 79.1172 156.426 63.4258 155.793 58.0352C143.57 47.418 131.508 43.457 128.336 42.5039C124.367 44.7227 114.211 50.4297 111.195 52.1719C112.941 56.4531 115.16 64.5352 116.434 78.6406Z" fill="white"/>
<path d="M131.508 124.605L104.211 126.191C98.9766 133.641 91.1992 142.516 88.1836 146.004L98.1797 159.316C102.148 159.949 114.527 161.059 132.141 156.625L144.207 139.824L131.508 124.605Z" fill="white"/>
<path d="M140.078 95.918L133.094 122.227L146.426 138.074L161.504 130.473L161.344 130.309C161.504 130.152 171.187 117.629 170.867 97.1875C168.492 94.4922 162.453 87.832 159.602 84.6641C155.629 87.0391 145.949 92.4297 140.078 95.918Z" fill="white"/>
<path d="M61.1992 67.5469C61.9922 72.3008 64.0586 84.1875 64.6914 88.9414C70.2461 89.8945 83.1016 92.2734 91.9883 95.2852L113.574 77.6914C112.621 67.0703 110.879 60.0977 109.766 56.293C109.129 54.3906 108.656 53.125 108.336 52.1719C103.102 50.7461 90.7188 47.1016 85.8008 45.6758C82.1523 47.8945 70.7227 55.6602 61.1992 67.5469Z" fill="white"/>
<path d="M178.488 85.2969L173.727 94.9648C174.676 115.254 166.422 128.406 164.203 131.582L165.156 141.562C174.203 129.516 179.754 114.617 179.754 98.4531C179.598 93.8594 179.277 89.582 178.488 85.2969Z" fill="white"/>
<path d="M158.328 56.4531L158.172 56.6094L167.055 58.0352C156.582 42.8203 140.398 31.8867 121.512 28.3984L128.652 39.6523C131.352 40.4453 144.684 44.4062 158.328 56.4531Z" fill="white"/>
<path d="M107.383 162.805C101.516 162.805 97.7031 162.168 96.5938 162.012L86.7539 166.449C93.5781 168.668 100.719 169.773 108.336 169.773C121.668 169.773 134.211 166.129 145 159.637H132.141C121.988 162.012 113.574 162.805 107.383 162.805Z" fill="white"/>
<path d="M48.6641 108.754L36.918 97.3477C36.918 97.6602 36.918 98.1367 36.918 98.4531C36.918 118.742 45.332 136.969 58.9805 149.969C59.2969 146.957 59.9297 141.883 60.25 139.027C51.9961 127.461 49.2969 113.984 48.6641 108.754Z" fill="white"/>
<path d="M58.6641 65.9609C68.6602 53.5977 80.0859 45.6758 83.8945 43.2969L87.707 30.1445C67.3906 36.3242 50.8867 51.2227 42.6328 70.3984C47.3945 69.1328 55.1719 67.0703 58.6641 65.9609Z" fill="white"/>
<path d="M10.207 102.754H206.699V180.004H10.207V102.754Z" fill="white"/>
<path d="M108.484 189.234L111.254 194.895L117.453 195.805L112.969 200.211L114.027 206.434L108.484 203.496L102.941 206.434L104 200.211L99.5156 195.805L105.715 194.895L108.484 189.234Z" fill="white"/>
<path d="M108.441 189.184L111.215 194.84L117.414 195.75L112.926 200.156L113.984 206.379L108.441 203.441L102.898 206.379L103.957 200.156L99.4727 195.75L105.672 194.84L108.441 189.184Z" fill="white"/>
<path d="M108.441 189.184L111.215 194.84L117.414 195.75L112.926 200.156L113.984 206.379L108.441 203.441L102.898 206.379L103.957 200.156L99.4727 195.75L105.672 194.84L108.441 189.184Z" fill="white"/>
<path d="M108.441 189.184L111.215 194.84L117.414 195.75L112.926 200.156L113.984 206.379L108.441 203.441L102.898 206.379L103.957 200.156L99.4727 195.75L105.672 194.84L108.441 189.184Z" fill="white"/>
<path d="M37.0204 113.984L31.8485 109.656H20.2235L15.0516 113.984V121.234L19.5829 124.969L28.6923 126.484L29.4266 127.125V128.922L28.4735 129.719H22.9266L22.161 126.938H15.0516V131.766L20.4579 136.25H31.8954L37.3173 131.766V124.172L32.8798 120.703L23.7235 119.188L22.8798 118.547V116.984L23.8798 116.219H29.161L29.911 119H37.0204V113.984Z" fill="#093F68"/>
<path d="M64.002 119V109.656H40.5488V115.469L43.4395 116.219V129.719L40.5488 130.469V136.25H64.0332V126.938H58.4082L57.6426 129.719H51.2676V125.078H57.6426V120.516H51.2676V116.219H57.6426L58.4082 119H64.002Z" fill="#093F68"/>
<path d="M92.036 115.469V109.656H77.3329V115.469L81.3173 116.219V128.797L80.1766 129.719H75.161L74.3954 126.938H67.3329V131.766L72.7235 136.25H83.0673L89.1766 131.156V116.219L92.036 115.469Z" fill="#093F68"/>
<path d="M120.906 115.469V109.656H108.64V115.469L110.343 116.219V128.844L109.359 129.719H104.953L103.922 128.844V116.219L105.672 115.469V109.656H93.1715V115.469L96.0621 116.219V132.109L101.078 136.25H113.047L118.015 132.109V116.219L120.906 115.469Z" fill="#093F68"/>
<path d="M146.749 119V109.656H123.296V115.469L126.187 116.219V129.719L123.296 130.469V136.25H146.78V126.938H141.155L140.39 129.719H134.015V125.078H140.39V120.516H134.015V116.219H140.39L141.155 119H146.749Z" fill="#093F68"/>
<path d="M172.455 119V113.984L167.252 109.656H155.97L150.08 114.547V131.156L156.205 136.25H163.22L165.736 134.156L166.502 136.25H172.455V120.516H161.064V125.078H164.627V128.719L163.455 129.719H159.049L157.908 128.797V117.094L159.017 116.219H164.627L165.392 119H172.455Z" fill="#093F68"/>
<path d="M199.515 129.719L194.39 109.656H179.031V115.469L181.499 116.219L177.624 129.719L174.703 130.469V136.25H186.093V130.469L184.234 129.719L184.89 127.359H190.624L191.312 129.719L189.296 130.469V136.25H202.781V130.469L199.515 129.719ZM187.656 116.828L189.374 122.797H185.984L187.656 116.828Z" fill="#093F68"/>
<path d="M77.9067 147.734L72.7349 143.406H61.7505L55.8599 148.297V164.906L61.9849 170H72.5005C73.3833 169.262 74.2817 168.523 75.188 167.781C76.1021 167.031 77.0083 166.277 77.9067 165.516V160.688H70.7974L70.0317 163.469H64.8286L63.688 162.547V150.844L64.7974 149.969H70.0317L70.7974 152.75H77.9067V147.734Z" fill="#093F68"/>
<path d="M95.2993 149.219V143.406H81.3149V149.219L84.2056 149.969V163.469L81.3149 164.219V170H104.768V159.859H99.1431L98.3774 163.469H92.0649V149.969L95.2993 149.219Z" fill="#093F68"/>
<path d="M133.824 149.219V143.406H121.558V149.219L123.261 149.969V162.594L122.277 163.469H117.871L116.839 162.594V149.969L118.589 149.219V143.406H106.089V149.219L108.98 149.969V165.859L113.996 170H125.964L130.933 165.859V149.969L133.824 149.219Z" fill="#093F68"/>
<path d="M160.917 154.109V147.734L155.745 143.406H136.214V149.219L139.104 149.969V163.469L136.214 164.219V170H155.667L161.073 165.516V158.375L158.401 156.172L160.917 154.109ZM146.964 158.641H152.323L153.245 159.391V162.672L152.245 163.469H146.964V158.641ZM146.964 149.969H152.245L153.167 150.734V153.234L152.245 154H146.964V149.969Z" fill="#093F68"/>
<path d="M127.801 196.227L129.418 199.672L133.031 200.223L130.414 202.906L131.035 206.695L127.801 204.906L124.566 206.695L125.184 202.906L122.57 200.223L126.184 199.672L127.801 196.227Z" fill="white"/>
<path d="M127.777 196.195L129.395 199.641L133.008 200.191L130.391 202.875L131.008 206.66L127.777 204.875L124.543 206.66L125.16 202.875L122.543 200.191L126.156 199.641L127.777 196.195Z" fill="white"/>
<path d="M127.777 196.195L129.395 199.641L133.008 200.191L130.391 202.875L131.008 206.66L127.777 204.875L124.543 206.66L125.16 202.875L122.543 200.191L126.156 199.641L127.777 196.195Z" fill="white"/>
<path d="M127.777 196.195L129.395 199.641L133.008 200.191L130.391 202.875L131.008 206.66L127.777 204.875L124.543 206.66L125.16 202.875L122.543 200.191L126.156 199.641L127.777 196.195Z" fill="white"/>
<path d="M89.0273 196.227L90.6406 199.672L94.2578 200.223L91.6406 202.906L92.2578 206.695L89.0273 204.906L85.7891 206.695L86.4102 202.906L83.793 200.223L87.4102 199.672L89.0273 196.227Z" fill="white"/>
<path d="M89 196.195L90.6172 199.641L94.2344 200.191L91.6172 202.875L92.2344 206.66L89 204.875L85.7695 206.66L86.3867 202.875L83.7695 200.191L87.3828 199.641L89 196.195Z" fill="white"/>
<path d="M89 196.195L90.6172 199.641L94.2344 200.191L91.6172 202.875L92.2344 206.66L89 204.875L85.7695 206.66L86.3867 202.875L83.7695 200.191L87.3828 199.641L89 196.195Z" fill="white"/>
<path d="M89 196.195L90.6172 199.641L94.2344 200.191L91.6172 202.875L92.2344 206.66L89 204.875L85.7695 206.66L86.3867 202.875L83.7695 200.191L87.3828 199.641L89 196.195Z" fill="white"/>
</svg>
