<svg width="30" height="30" viewBox="0 0 30 30" fill="none" xmlns="http://www.w3.org/2000/svg">
<path d="M0.143761 13.1497C0.420835 10.6316 1.34748 8.331 2.84608 6.28133C5.26042 2.98093 8.48929 0.96305 12.5214 0.260567C13.3253 0.120674 14.1475 0.0842685 14.9612 0C15.0153 0 15.069 0 15.1227 0C15.883 0.0832212 16.6465 0.138353 17.4015 0.254345C25.1542 1.44402 30.7596 8.78486 29.8733 16.5947C29.4505 20.3224 27.889 23.5013 25.1169 26.0365C21.8211 29.0513 17.9059 30.3439 13.4673 29.9222C10.0608 29.5975 7.08821 28.2237 4.6382 25.8265C1.0802 22.3424 -0.399488 18.0835 0.143761 13.1497ZM3.30266 20.8251C3.68168 20.1642 4.16013 19.2428 4.37388 18.4563C4.68446 17.3145 5.43013 18.4177 5.4924 19.1634C5.55468 19.9092 6.05161 20.4684 7.04601 19.3498C8.04042 18.2313 8.22682 18.4796 8.5374 18.4796C8.84799 18.4796 9.40725 19.2252 9.28307 22.7054C9.19455 25.19 8.21437 25.5843 7.57392 25.7646C8.76311 26.5816 10.1296 27.2254 11.6632 27.6149C17.5249 29.1026 23.5082 26.401 26.3037 21.0338C28.9081 16.0328 27.6392 10.3738 24.9917 7.2591C24.9205 7.81929 24.8507 8.3225 24.7927 8.82767C24.6349 10.2069 24.754 11.5681 25.0354 12.9238C25.0955 13.2127 25.0745 13.5418 24.9966 13.826C24.9542 13.9812 24.7203 14.1644 24.5586 14.1798C24.4314 14.1921 24.2093 13.9904 24.1577 13.8389C24.0645 13.5681 24.0607 13.2644 24.0321 12.9733C24.0115 12.7679 24.0111 12.5598 23.997 12.2377C23.7867 12.408 23.6334 12.5114 23.506 12.6396C23.1812 12.9666 22.8528 13.2921 22.5564 13.6436C22.4255 13.7996 22.2906 14.0181 22.2942 14.2059C22.3024 14.6079 22.1261 14.8812 21.9106 15.1968C21.6713 15.5478 21.5635 15.9891 21.4095 16.3955C21.345 16.5659 21.3315 16.7582 21.2547 16.922C21.0907 17.2729 20.8428 17.5133 20.4165 17.5395C19.9682 17.5679 19.8003 17.7419 19.7359 18.2006C19.8506 18.2138 19.9647 18.2291 20.0792 18.2396C20.6261 18.2917 20.8971 18.5429 20.8755 19.0946C20.8328 20.1901 20.4376 21.1473 19.6243 21.9083C19.4002 22.1184 19.1621 22.3136 18.9444 22.5288C18.447 23.0199 18.2735 23.597 18.5126 24.2754C18.6271 24.5987 18.784 24.9162 18.8348 25.2505C18.8865 25.5901 18.8868 25.9594 18.8082 26.2918C18.7266 26.6376 18.7616 27.3942 18.4044 27.3316C17.7725 27.2206 17.4093 27.3451 17.3602 26.6376C17.3509 26.5029 17.3613 26.4862 17.3971 26.3617C17.585 25.6976 16.7319 23.8122 16.22 23.4685C15.7827 23.1743 15.3442 22.875 14.9478 22.5295C14.3764 22.0329 14.1206 21.3913 14.3607 20.6442C14.5867 19.9411 14.3224 19.4249 13.8308 18.9722C13.3294 18.5109 13.0006 17.9793 13.0349 17.2693C13.0691 16.5593 13.5337 16.0466 14.1392 16.1195C14.4352 16.1544 14.719 16.2964 15.0076 16.3936C15.4307 16.5367 15.8436 16.737 16.2778 16.8149C16.8864 16.9227 17.2614 16.5251 17.5329 16.0422C17.7513 15.6541 17.8233 15.6243 18.2025 15.8661C18.5224 16.0707 18.8416 16.2767 19.173 16.4617C19.5172 16.654 19.7048 16.5827 19.9701 16.295C20.1271 16.1253 20.3444 16.0059 20.5462 15.8836C20.6912 15.7947 20.8874 15.7703 21.0037 15.6589C21.1595 15.5082 21.3769 15.2846 21.3548 15.1212C21.3291 14.9293 21.1069 14.6891 20.913 14.6105C20.579 14.4751 20.1994 14.4532 19.8411 14.3753C19.6504 14.3338 19.4568 14.2906 19.2765 14.2195C19.0296 14.121 19.04 13.9588 19.229 13.8066C19.3222 13.7318 19.4374 13.6791 19.5498 13.634C20.0959 13.4141 20.6451 13.2038 21.191 12.983C21.3266 12.9286 21.4602 12.8616 21.582 12.782C21.9252 12.5565 21.9665 12.3082 21.6552 12.0334C20.426 10.9492 18.9901 10.6317 17.718 12.0723C17.3239 12.5184 17.0566 13.0748 16.6845 13.543C16.3917 13.9122 16.0547 14.2589 15.6827 14.5438C15.5293 14.6608 15.1846 14.6807 15.0131 14.5867C14.7577 14.4469 14.7488 14.1281 14.8773 13.8623C14.9883 13.6315 15.1188 13.4039 15.2757 13.2019C15.9985 12.2707 15.9488 10.456 14.5332 9.69888C14.0596 9.44527 13.582 9.17818 13.3559 8.49787C13.6271 8.57123 13.8238 8.61854 14.0164 8.67756C15.0914 9.0105 14.343 8.2086 13.8485 8.06877C13.5481 7.98339 14.1172 7.75325 14.1172 7.75325C14.1037 7.72978 13.7393 7.6258 13.334 7.45301C13.0551 7.3345 12.77 7.20107 12.5384 7.01245C12.3884 6.88938 12.3305 6.65419 12.2318 6.4692C12.2569 6.44007 12.2814 6.41167 12.3068 6.38253C12.5909 6.42079 12.8745 6.4628 13.1592 6.49489C13.6417 6.54891 13.7549 6.4543 13.7996 5.96766C13.8306 5.63539 14.1692 5.45429 14.4854 5.62467C14.6994 5.74066 14.8843 5.90883 15.0902 6.04189C15.5655 6.34976 15.9209 6.22669 16.1073 5.69582C16.2184 5.37981 16.3731 5.32006 16.6638 5.49704C16.8101 5.58586 16.932 5.71566 17.0807 5.79869C17.3245 5.93489 17.5724 6.07158 17.8342 6.1641C18.0892 6.25441 18.3964 6.31995 18.5699 6.04029C18.7563 5.73956 18.5934 5.44677 18.3583 5.25822C18.0661 5.02371 17.7293 4.84168 17.4006 4.65743C16.9323 4.39385 16.4364 4.17461 15.9842 3.88719C15.6523 3.67541 15.5072 3.33027 15.6146 2.92303C15.7053 2.5793 15.9352 2.463 16.2536 2.62064C16.5165 2.75117 16.7462 2.95543 17.0166 3.06064C17.2142 3.13635 17.4603 3.13715 17.6724 3.09982C17.7507 3.08596 17.8339 2.86901 17.8361 2.74304C17.8376 2.67041 17.6903 2.54425 17.5963 2.52892C16.9431 2.42715 16.287 2.34104 15.63 2.26619C15.5431 2.25671 15.4126 2.31042 15.3582 2.37978C14.9242 2.92759 14.3187 3.19339 13.6817 3.38306C13.1465 3.54199 13.0689 3.46628 12.9953 2.9048C12.3079 2.74297 11.6092 2.42413 10.9174 2.86038C10.5337 3.10192 10.1838 3.40967 9.85896 3.72839C9.77845 3.80773 9.82761 4.05314 9.86623 4.2112C9.91718 4.4236 10.0348 4.61992 10.089 4.83231C10.1939 5.24392 9.92777 5.5656 9.50249 5.55888C9.36814 5.55599 9.23416 5.52845 9.09907 5.52174C8.70619 5.50338 8.56672 5.65375 8.60276 6.05045C8.65376 6.61261 8.5602 6.68018 7.99292 6.58421C7.82987 6.55674 7.64156 6.63078 7.47518 6.68912C7.37619 6.72404 7.29937 6.81891 7.21122 6.8855C6.68368 7.28528 6.28027 7.13547 6.12584 6.48134C6.10914 6.41013 6.1113 6.33405 6.0967 6.26211C6.03553 5.96865 5.86983 5.89312 5.67184 6.1017C5.25235 6.5459 4.85879 7.01486 4.4332 7.49915C4.89051 7.91859 4.90579 8.42832 4.80452 8.92784C4.69204 9.48353 4.8384 9.96628 5.05757 10.4558C5.26763 10.9248 5.49844 11.3908 5.6387 11.8815C5.84839 12.6179 5.61031 12.9543 4.86242 13.1173C4.14879 13.2731 4.03194 13.4165 4.00496 14.1142C3.96892 15.0658 3.48025 15.7226 2.64539 16.1417C2.46003 16.2342 2.2631 16.3045 2.0738 16.3831C2.16737 17.8501 2.58613 19.3768 3.30266 20.8251Z" fill="#001E1D"/>
</svg>
